PathFileType	4	(X/Y/Z)	C:/Users/opensim2020/Desktop/walking_exp_matlab/subject06_walking19_straight_04.trc																																																																																																																																																	
DataRate	CameraRate	NumFrames	NumMarkers	Units	OrigDataRate	OrigDataStartFrame	OrigNumFrames																																																																																																																																													
100	100	5	49	mm	100	4841	340																																																																																																																																													
Frame#	Time	LFHD			RFHD			LBHD			RBHD			C7			T10			CLAV			STRN			RBAK			LSHO			LUPA			LELB			LFRM			LWRA			LWRB			LFIN			RSHO			RUPA			RELB			RFRM			RWRA			RWRB			RFIN			LASI			RASI			LPSI			RPSI			LTHI			LKNE			LTIB			LANK			LHEE			LTOE			RTHI			RKNE			RTIB			RANK			RHEE			RTOE			*39			*40			*41			*42			*43			*44			*45			*46			*47			*48		
		X1	Y1	Z1	X2	Y2	Z2	X3	Y3	Z3	X4	Y4	Z4	X5	Y5	Z5	X6	Y6	Z6	X7	Y7	Z7	X8	Y8	Z8	X9	Y9	Z9	X10	Y10	Z10	X11	Y11	Z11	X12	Y12	Z12	X13	Y13	Z13	X14	Y14	Z14	X15	Y15	Z15	X16	Y16	Z16	X17	Y17	Z17	X18	Y18	Z18	X19	Y19	Z19	X20	Y20	Z20	X21	Y21	Z21	X22	Y22	Z22	X23	Y23	Z23	X24	Y24	Z24	X25	Y25	Z25	X26	Y26	Z26	X27	Y27	Z27	X28	Y28	Z28	X29	Y29	Z29	X30	Y30	Z30	X31	Y31	Z31	X32	Y32	Z32	X33	Y33	Z33	X34	Y34	Z34	X35	Y35	Z35	X36	Y36	Z36	X37	Y37	Z37	X38	Y38	Z38	X39	Y39	Z39	X40	Y40	Z40	X41	Y41	Z41	X42	Y42	Z42	X43	Y43	Z43	X44	Y44	Z44	X45	Y45	Z45	X46	Y46	Z46	X47	Y47	Z47	X48	Y48	Z48	X49	Y49	Z49
																																																																																																																																																				
298	2.97	574.23108	1658.07251	947.75897	574.71735	1642.43042	1078.50317	442.05078	1601.14465	945.75885	444.56845	1590.38574	1074.97375	442.63351	1443.76953	998.60193	411.22791	1113.84912	1008.26422	552.40228	1366.90454	996.43054	591.58264	1191.59863	983.99396	372.26169	1270.94373	1078.6123	500.40524	1401.22913	837.14789	544.99896	1205.03967	764.3537	579.16827	1096.26575	753.85583	667.72937	972.76886	750.32422	761.24658	898.79407	814.05664	719.24524	865.73193	768.40558	791.15533	813.08093	783.31403	512.5791	1393.68396	1159.32495	472.94223	1194.83423	1244.96704	479.25668	1072.53613	1255.46094	497.13016	953.28619	1270.29968	559.24408	816.25793	1234.45618	506.79056	816.16602	1276.93726	545.28949	740.7287	1276.578	575.09888	952.32074	881.60327	601.46954	961.23315	1102.68433	422.6279	982.56647	928.01129	446.52924	986.0625	1095.07642	468.42685	641.11285	841.21497	440.10223	478.51514	863.79535	320.19543	249.08025	872.94348	254.99004	88.76109	920.13611	208.62816	86.7588	961.66919	390.12149	34.10777	935.76538	597.79688	632.83008	1170.22571	627.57587	511.22009	1141.59204	641.74713	251.28398	1143.89856	676.13043	67.58411	1102.23376	643.77808	38.3398	1056.79041	834.1015	50.09364	1095.49121	473.66678	1692.01355	1008.37994	NaN	NaN	NaN	NaN	NaN	NaN	NaN	NaN	NaN	NaN	NaN	NaN	NaN	NaN	NaN	NaN	NaN	NaN	NaN	NaN	NaN	NaN	NaN	NaN	NaN	NaN	NaN
299	2.98	579.90338	1658.62817	948.76178	580.57239	1643.2251	1079.62134	447.76764	1601.63135	946.95673	450.45471	1591.18872	1076.29968	448.58133	1444.31726	1000.24927	417.78824	1114.27759	1009.60474	558.54529	1367.64343	997.84912	598.25891	1192.42249	985.39148	378.98779	1271.25854	1079.97778	506.33572	1401.61829	838.46277	550.87848	1205.24146	765.84839	585.06598	1096.45081	755.55664	673.97089	973.1452	752.02155	767.66364	899.62396	815.72266	725.34015	866.27002	770.57745	797.79413	813.99335	785.00592	518.84662	1394.24353	1160.79456	478.94797	1195.31702	1246.2262	485.74414	1073.06628	1256.97156	503.15164	953.72467	1271.85181	564.59778	816.37848	1236.05713	512.21222	816.57123	1278.62903	550.34784	740.95953	1278.21985	581.97864	952.81946	882.84546	608.69495	962.30011	1103.56543	429.75473	983.06995	929.23456	453.57278	987.22058	1096.13696	474.74054	641.6756	842.2171	446.27292	479.10193	864.46869	323.21896	251.12817	872.87756	256.37039	91.37709	919.73419	209.84399	90.03041	961.40179	390.10333	33.8539	935.68005	603.14771	633.65363	1170.99231	631.84998	511.62433	1143.6355	645.88116	251.1335	1145.37585	677.91077	67.41704	1103.3125	645.23718	38.95708	1057.7876	835.54504	46.91314	1095.17773	479.36011	1692.67944	1009.51025	NaN	NaN	NaN	NaN	NaN	NaN	NaN	NaN	NaN	NaN	NaN	NaN	NaN	NaN	NaN	NaN	NaN	NaN	NaN	NaN	NaN	NaN	NaN	NaN	NaN	NaN	NaN
300	2.99	585.48199	1659.21741	949.82562	586.3429	1644.00696	1080.61792	453.42123	1602.1272	948.35498	456.2952	1591.82166	1077.77173	454.64075	1444.51428	1001.35791	424.88123	1114.49805	1011.16309	564.71875	1368.41895	999.26532	604.99756	1193.30762	986.7793	385.35739	1271.65796	1081.63208	512.30353	1402.21558	839.78827	556.77014	1205.68176	767.46313	591.05121	1096.97449	757.25958	679.90448	973.69543	753.7937	773.87909	900.45648	817.34039	731.21808	866.86932	772.58362	804.12079	814.89783	786.59937	525.05255	1394.9563	1162.18896	485.81784	1196.12939	1248.03259	492.228	1073.78247	1258.49512	509.3244	954.36121	1273.45313	570.03973	816.68042	1237.6582	517.83472	817.0694	1280.34241	555.58099	741.29889	1279.91858	588.96417	953.39319	884.20984	615.88098	963.52484	1104.51355	436.80081	983.75372	930.47369	460.56122	988.30951	1097.17163	481.28714	642.31512	843.10358	452.72305	479.77374	865.09149	326.60257	253.34747	873.05823	257.84967	94.18913	919.2489	211.44511	93.52009	960.80316	390.51981	33.85515	935.58197	608.42023	634.41571	1172.07898	636.93121	512.36548	1145.28833	649.29962	250.86122	1146.98535	678.9892	66.82388	1104.23071	645.6795	39.14832	1058.66357	836.27704	43.7687	1095.21155	485.11157	1693.23682	1010.69409	NaN	NaN	NaN	NaN	NaN	NaN	NaN	NaN	NaN	NaN	NaN	NaN	NaN	NaN	NaN	NaN	NaN	NaN	NaN	NaN	NaN	NaN	NaN	NaN	NaN	NaN	NaN
301	3	591.08905	1659.88098	950.89209	592.16284	1644.91785	1081.76624	459.07996	1602.62317	949.81964	462.20212	1592.52209	1079.06763	460.78827	1444.75769	1002.62555	431.51489	1115.31287	1012.45575	570.97211	1369.22119	1000.67358	611.7605	1194.22839	988.19934	392.00494	1271.97217	1082.93616	518.24231	1402.94153	841.19507	562.64514	1206.2533	769.14313	596.92834	1097.58472	759.05585	685.72809	974.32861	755.42401	779.88666	901.30261	818.9375	737.24493	867.56787	774.31158	810.03387	815.76581	788.22388	531.19305	1395.76672	1163.54761	492.05682	1196.94775	1249.48157	498.8345	1074.61926	1260.00586	515.64349	955.16785	1275.06458	575.77533	817.229	1239.33252	523.60846	817.9115	1282.1947	561.14813	741.87976	1281.56262	595.95398	953.93488	885.62708	623.0257	964.76215	1105.61047	443.80298	984.46875	931.7467	467.61276	989.38019	1098.40735	488.03052	642.9212	844.10693	459.60724	480.43951	865.77429	330.24225	255.80222	872.98938	259.59125	97.16466	918.65826	213.2016	97.19916	960.04718	390.77719	33.80102	935.45624	613.89948	635.20172	1173.5531	642.61469	513.20575	1146.56812	652.22522	250.71281	1148.48938	679.42981	66.35623	1105.14282	645.93976	39.19446	1059.53833	836.42682	41.78279	1095.90149	490.72293	1693.9303	1011.78882	NaN	NaN	NaN	NaN	NaN	NaN	NaN	NaN	NaN	NaN	NaN	NaN	NaN	NaN	NaN	NaN	NaN	NaN	NaN	NaN	NaN	NaN	NaN	NaN	NaN	NaN	NaN
302	3.01	596.61902	1660.66345	952.05463	598.02905	1645.91187	1082.92346	464.80569	1603.14343	951.01947	468.05292	1593.30786	1080.53467	466.53778	1445.81982	1004.31494	438.28928	1115.84485	1013.94702	577.2345	1370.06934	1002.12885	618.46826	1195.1355	989.62982	398.34079	1272.24585	1084.55664	524.10431	1403.70789	842.63013	568.49371	1206.95959	770.79309	602.85718	1098.55273	760.58289	691.29083	974.99384	757.16437	785.73224	902.10059	820.45862	743.04889	868.22241	775.9267	815.73914	816.35431	789.86719	537.37463	1396.69226	1164.99255	498.7998	1197.88428	1251.19702	505.43839	1075.53296	1261.54614	522.00879	956.06854	1276.70276	581.53186	817.78107	1240.98706	529.55609	818.74805	1284.0321	566.78467	742.56128	1283.34045	603.09485	954.54297	887.12799	629.98639	965.89764	1106.93103	450.96259	985.16449	933.17999	474.65512	990.44061	1099.8042	495.03223	643.47369	845.09521	466.96616	480.95779	866.54535	334.10397	258.20523	872.75336	261.51431	100.32391	917.92761	215.23949	101.12743	959.1579	391.13223	33.7595	935.3476	619.953	636.16406	1175.10327	648.48059	514.03937	1147.53357	654.80194	250.81215	1149.70654	680.54535	66.07923	1105.73584	646.39288	39.39911	1060.36658	836.98279	40.76903	1097.10168	496.24304	1694.70605	1013.0517	NaN	NaN	NaN	NaN	NaN	NaN	NaN	NaN	NaN	NaN	NaN	NaN	NaN	NaN	NaN	NaN	NaN	NaN	NaN	NaN	NaN	NaN	NaN	NaN	NaN	NaN	NaN
